<svg xmlns="http://www.w3.org/2000/svg" height="20" viewBox="0 96 960 960" width="20"><path d="M612 540q25 0 42.5-17.5T672 480q0-25-17.5-42.5T612 420q-25 0-42.5 17.5T552 480q0 25 17.5 42.5T612 540Zm-264 0q25 0 42.5-17.5T408 480q0-25-17.5-42.5T348 420q-25 0-42.5 17.5T288 480q0 25 17.5 42.5T348 540Zm132 228q60 0 110.5-31t79.5-84H290q29 53 79.5 84T480 768Zm.276 192Q401 960 331 930q-70-30-122.5-82.5T126 725.042q-30-69.959-30-149.5Q96 496 126 426.5t82.5-122Q261 252 330.958 222q69.959-30 149.5-30Q560 192 629.5 222t122 82.5Q804 357 834 426.724q30 69.725 30 149Q864 655 834 725q-30 70-82.5 122.5T629.276 930q-69.725 30-149 30ZM480 576Zm0 312q130 0 221-91t91-221q0-130-91-221t-221-91q-130 0-221 91t-91 221q0 130 91 221t221 91Z"/></svg>