<svg width="250" height="180" viewBox="0 0 250 180" fill="none" xmlns="http://www.w3.org/2000/svg">
<path d="M243.848 73.4048C241.39 74.3299 239.489 74.9799 236.547 74.7061C234.333 76.1436 237.343 78.3353 235.889 80.287C234.505 83.3688 231.115 84.4299 228.07 84.2257C228.727 87.3062 230.63 90.2856 231.565 93.4355C233.745 99.1199 236.408 104.633 238.866 110.213C239.038 112.029 238.727 113.09 237.862 114.494C235.752 115.658 234.091 114.94 231.565 115.145C217.414 112.919 203.851 109.187 190.219 105.762C184.545 104.941 178.04 104.976 172.919 106.927C166.656 111.412 160.394 115.863 152.159 115.624C137.42 116.206 122.473 115.83 108.98 112.029C103.998 112.884 98.7733 114.288 93.3758 114.631C88.6361 115.008 84.4145 114.117 80.0907 113.501C73.7935 118.329 67.116 111.858 59.6763 113.98C54.7627 114.7 49.3663 116.172 44.3827 114.631C42.0995 114.973 39.1244 115.555 36.9096 114.152C34.4184 114.426 31.5119 115.145 29.4362 113.501C28.329 112.269 27.0841 110.933 26.7724 109.049C20.544 105.66 14.0054 100.866 9.8525 94.6007C0.754121 84.1561 0.822727 66.6259 7.18868 55.1553C12.4138 45.1219 23.6581 37.5204 30.4397 28.3442C35.1803 22.729 35.6985 14.751 32.4465 8.31376C31.4782 5.64269 29.679 3.38322 27.2917 1.74022C27.5682 1.19148 28.1562 1.29425 28.6066 1.74022C37.2912 8.79258 42.4109 20.2984 38.3971 31.3235C34.7298 41.0137 27.4994 48.8207 22.7935 58.0997C19.7143 64.5718 19.6792 73.6107 24.4537 79.1582C30.2316 84.533 38.3281 84.9441 45.8717 86.3831C52.7216 86.897 59.9187 86.3484 66.1459 84.3969C67.0451 77.2069 66.7336 69.1246 69.6402 62.5512C71.6133 60.4968 75.3495 61.0108 78.1172 61.387C86.2135 63.201 93.3416 67.7899 102.026 67.7899C113.098 53.8191 134.066 53.5457 150.188 57.7913C156.001 59.2637 161.571 61.4898 166.796 64.3663C168.284 63.4415 168.56 61.4206 169.599 60.0857C172.09 56.9011 175.618 54.5387 179.736 55.8051C182.158 56.8676 183.818 58.6816 184.718 61.215L186.725 60.9082C186.38 59.0927 190.566 59.2303 188.212 57.2775C187.176 53.7163 187.244 48.8207 189.874 45.7732C192.642 42.6234 196.448 40.8762 200.669 42.1775C202.191 42.6912 203.575 43.5471 204.821 44.7802C205.789 44.3012 206.689 43.4108 207.485 42.8289C210.426 40.0552 215.961 40.4318 219.423 41.8357C223.886 44.1302 225.234 48.8552 225.408 53.5108C226.48 53.5108 227.725 52.2789 229.075 52.0385C232.431 50.9427 236.445 51.5595 238.693 54.3328C239.904 52.758 241.842 51.9027 243.849 52.3471C245.268 52.758 246.133 54.2998 246.686 55.4635C247.344 58.6482 245.994 61.5233 244.506 63.8526C245.682 63.9887 246.894 64.6746 247.344 65.8386C248.416 68.9885 246.513 71.7957 243.849 73.4051" fill="black"/>
<path d="M242.012 73.0633C240.697 73.4399 239.141 73.7482 237.688 73.405C239.417 71.2134 240.352 68.7149 241.183 66.1468C242.392 65.6329 244.192 64.3995 245.507 65.3248C246.51 65.9064 246.475 66.8994 246.683 67.7898C246.373 70.0496 244.262 72.4469 242.012 73.0633Z" fill="#00A650"/>
<path d="M243.675 63.6826C243.017 63.887 242.257 63.887 241.702 64.3673C241.945 61.4909 241.565 57.7924 239.523 55.3271C239.695 54.3009 240.977 54.0953 241.53 53.5119C242.88 52.8619 244.193 53.8895 245.024 54.6426C246.789 57.5869 245.371 61.1826 243.675 63.6826Z" fill="#00A650"/>
<path d="M234.713 75.0489C233.121 73.749 230.358 72.863 228.455 73.8212C227.003 74.3005 226.271 76.2823 225.579 77.5144C216.168 77.3782 205.996 77.5489 198.523 83.0963C192.502 86.6225 185.513 89.4309 178.247 87.0338C178.628 85.0142 180.358 83.5756 180.911 81.6239C184.717 81.9656 189.181 81.8298 192.709 80.4601C194.579 80.9045 196.551 81.0752 198.35 80.288C201.049 77.8227 205.028 77.7892 208.315 76.3502C212.709 75.7686 216.48 72.8586 220.597 71.0781C223.02 71.7628 225.164 73.0296 227.586 73.7142L227.898 73.4058C226.548 71.6252 225.025 70.1877 224.264 68.3045C227.032 66.0448 228.97 63.4422 231.046 60.9089L232.396 61.3877C232.569 61.0796 232.777 60.8061 232.706 60.3947C231.6 59.8809 230.181 58.6489 229.074 59.5727C228.901 60.1546 229.593 60.1213 229.905 60.3947C223.434 71.6601 210.39 75.1186 198.834 78.1657C198.558 75.392 199.457 73.3031 198.661 70.7698H198.35C197.173 73.6114 195.547 76.2144 193.852 78.8157C184.476 83.0614 173.922 79.1933 165.964 74.5365C164.373 73.4741 164.269 71.0436 164.616 69.4336C165.341 67.3448 167.003 65.6337 168.939 64.5031C170.946 64.1614 173.541 63.7838 175.099 65.3256C177.036 66.5572 176.171 69.9129 178.731 69.9478C178.213 68.8864 177.694 67.8588 177.902 66.4893C178.628 65.531 179.735 64.4697 181.085 65.0169C181.638 65.9072 182.988 65.8393 184.06 66.0099C182.122 68.1672 181.397 71.488 182.226 74.2284H182.745C182.745 70.7349 183.472 66.5572 187.208 65.0169C189.492 63.8184 191.949 65.0518 194.024 65.8393C194.924 66.9351 195.963 67.8588 196.031 69.4336C195.755 71.9684 194.82 73.9197 192.709 75.5297C193.229 76.7267 193.956 75.392 194.509 75.1865C196.551 73.3031 197.831 70.9754 197 68.1323C196.896 67.7557 196.551 67.2769 196.688 66.9686C195.859 65.0169 193.678 64.0922 191.88 63.5449C189.319 62.928 186.967 63.7505 185.064 65.1879C183.817 65.3935 182.849 64.8796 181.914 64.3669C182.849 61.5587 186.136 62.2087 188.558 61.9019C194.06 62.1059 199.007 62.3115 203.16 65.8393L203.644 65.1879C199.561 61.3534 194.06 60.7713 188.386 60.7364C192.813 57.1754 199.179 59.7102 203.816 61.0796C206.135 62.3809 208.695 63.1684 210.805 65.0169C211.082 64.6058 211.809 65.3935 211.637 64.5031L209.802 62.8601C212.466 63.7838 215.268 62.7922 217.103 61.0796L216.93 60.9089C215.788 61.6266 214.508 62.1408 213.124 62.3809C214.612 61.5587 216.687 60.9768 217.448 59.4351L217.103 59.0934C215.2 60.7034 212.95 62.1408 210.286 62.2087C212.57 61.9019 214.923 60.8061 216.1 58.6144C216.307 57.792 217.068 56.9711 216.791 56.149C218.487 54.8128 216.411 53.3754 216.619 51.8685C215.649 49.3004 214.161 46.5614 211.462 45.6033C208.142 45.2949 205.651 48.3421 204.162 50.8755C204.128 48.8559 202.813 47.178 201.153 45.9449C200.079 45.0891 198.315 45.5005 197 45.6033C193.056 46.9031 193.16 51.3546 191.188 53.9922C191.083 54.8128 191.361 55.4642 192.018 55.978L192.364 57.792L190.046 57.9297C188.247 54.7449 188.247 50.4644 190.046 47.2463C191.326 44.9519 193.678 43.2392 196.171 42.8296C199.214 42.3157 202.329 43.3419 204.162 45.6033C204.405 46.5267 202.917 47.6574 204.162 48.0683C205.443 44.917 208.348 42.8975 211.637 42.0074C215.753 41.2199 219.767 42.2475 222.085 45.4656C223.849 47.8284 224.333 51.1487 223.573 54.1628C223.642 55.7725 221.462 56.9016 222.258 58.4434C225.096 54.9156 229.386 51.6975 234.541 52.8615C238.208 53.717 240.111 57.5865 240.526 60.9089C240.699 66.4893 238.243 70.9754 234.713 75.0489Z" fill="#40BB6A"/>
<path d="M236.026 113.502C230.768 114.118 225.994 112.543 221.08 111.688C206.098 109.632 192.535 101.278 176.586 104.463C176.344 104.531 176.102 104.669 175.756 104.634C176.863 100.114 181.638 99.5323 185.063 97.3741C194.924 91.9991 204.647 85.9728 213.78 79.159H215.615C209.145 85.4591 200.945 89.5341 194.024 95.0811L194.369 95.4228C197.138 93.2311 201.844 92.7519 204.992 94.4298C205.719 95.7311 206.964 96.8616 206.48 98.7103C212.777 101.449 219.386 103.538 226.063 105.456C226.548 105.763 226.824 106.415 227.412 106.415C227.412 104.908 226.583 103.298 226.41 101.655L220.113 78.9882L225.095 78.816C225.407 79.3646 224.956 79.7064 225.579 79.9797C226.167 78.7481 226.375 77.3785 227.412 76.3506C228.52 75.4602 229.731 74.7423 231.218 74.7076C232.984 74.6397 234.368 75.9395 235.197 77.3436C235.682 78.645 235.163 79.9797 234.368 80.9397C232.637 82.8561 230.215 83.5076 227.724 83.0965C225.995 82.8561 225.164 81.1103 223.919 80.1173C222.741 80.734 224.056 81.727 224.576 82.1035L226.894 84.3979C230.389 92.7868 232.845 101.62 237.378 109.564C238.104 111.071 237.586 112.852 236.028 113.502" fill="#00A650"/>
<path d="M223.434 68.9531L226.063 72.2407L221.773 70.4251L223.434 68.9531Z" fill="white"/>
<path d="M224.921 103.811C219.143 102.031 213.331 100.388 207.795 98.0586C207.795 95.9016 206.55 94.0185 204.647 92.9571C203.228 92.0321 201.013 92.6154 199.491 92.4432C206.272 88.4374 212.569 83.5753 218.763 78.8154C220.874 86.8972 223.33 94.8752 225.095 103.127L224.921 103.811" fill="white"/>
<path d="M216.445 54.8126C213.194 52.2445 209.111 51.6627 204.82 51.5266C205.477 49.3683 207.554 47.4516 209.63 46.596C211.014 45.9792 212.294 46.9377 213.125 47.7597C214.924 49.1628 215.581 51.2182 215.788 52.9989C214.232 52.5196 212.778 51.2861 211.118 51.5266C212.709 52.5529 214.82 52.964 216.445 54.1626V54.8126Z" fill="#FFF540"/>
<path d="M212.12 60.7362C209.802 61.353 206.964 61.182 205.165 59.5726C203.852 57.6891 203.366 54.9155 204.335 52.6904C208.556 52.5197 212.95 52.9293 216.1 55.8057C215.891 57.8598 214.196 59.846 212.12 60.7362Z" fill="white"/>
<path d="M202.502 86.0405L200.842 83.4043C204.232 81.3502 207.934 80.0489 211.947 79.4668C208.626 81.7264 205.72 83.7462 202.502 86.0405Z" fill="#DDD537"/>
<path d="M207.968 57.4506C207.346 58.5463 206.239 58.4436 205.165 58.4436C204.265 57.6894 203.92 56.5601 204.335 55.4644C204.751 54.5741 205.408 54.5741 206.135 54.163C207.346 53.9575 207.554 55.0534 208.142 55.6354C208.315 56.1492 207.795 56.7657 207.968 57.4506Z" fill="black"/>
<path d="M205.996 55.9784C205.443 56.1828 205.512 55.5328 205.304 55.3269C205.477 54.8481 206.135 54.8481 206.308 55.3269C206.446 55.6007 206.135 55.7729 205.996 55.9784Z" fill="white"/>
<path d="M203.16 59.4349C203.021 59.5041 203.124 58.8528 203.505 58.9225L203.644 58.75L204.335 59.9155L203.16 59.4349Z" fill="#00A650"/>
<path d="M202.986 54.6421C202.398 54.0253 201.325 53.717 200.668 54.3335C199.63 54.9156 199.353 56.2169 199.665 56.971C199.803 57.7241 200.634 57.9296 201.153 58.4433H202.674C202.501 59.231 201.741 59.0588 201.153 58.9227C198.661 58.3057 196.273 57.4154 193.368 57.792C193.229 57.0044 192.917 56.3545 193.021 55.4641C195.963 53.7519 199.179 52.5877 202.674 52.1768L203.505 52.5198C202.986 53.1019 203.16 53.9572 202.986 54.6421Z" fill="white"/>
<path d="M202.986 51.3541C199.076 51.5263 195.616 52.69 192.537 54.8123C192.225 54.5734 192.329 53.8193 192.71 53.511C193.609 52.4501 194.993 52.1414 195.859 51.3541C194.924 51.1484 194.024 51.9029 193.194 52.3473C193.368 50.5333 194.509 47.9985 196.688 47.1081C197.762 46.493 199.353 46.15 200.494 46.7664C202.156 47.6569 203.401 49.2999 202.986 51.3541Z" fill="#FFF540"/>
<path d="M186.898 95.4225C186.518 93.4712 186.345 91.4852 185.722 89.6697C191.327 89.6365 195.618 86.3489 200.185 83.7461C200.947 84.5684 201.362 85.5268 201.984 86.3838C196.968 89.4309 192.123 92.8544 186.898 95.4227" fill="#DDD537"/>
<path d="M201.153 55.9779C200.737 55.8057 200.737 55.2238 201.014 54.985C201.29 54.7793 201.637 54.8127 201.845 55.1557C201.913 55.5668 201.774 56.2517 201.153 55.9779Z" fill="white"/>
<path d="M197.831 78.9873C197.484 79.7055 196.481 79.8083 195.685 79.9789C195.339 79.7749 194.924 79.7055 194.509 79.6373L198.176 72.7207L197.831 78.9873Z" fill="white"/>
<path d="M192.849 72.5835C191.602 73.4738 190.461 74.5362 188.696 74.228C188.246 74.7069 188.799 75.289 189.042 75.7C188.143 75.3568 187.035 74.7069 186.724 73.7138C186.309 71.796 186.585 69.7416 187.867 68.3041C188.766 67.5847 189.942 67.071 191.188 66.9683C192.502 66.9 193.056 68.2696 193.678 69.125C193.644 70.3584 193.885 71.6933 192.849 72.5835Z" fill="black"/>
<path d="M178.732 99.7027C179.494 98.3333 180.358 96.8612 180.394 95.4224H180.254C178.698 100.25 173.82 102.168 170.29 105.592C169.702 106.209 168.871 106.311 168.283 106.928C169.044 95.7987 168.04 85.596 165.308 75.7002L167.28 77.0015C167.867 79.5698 169.251 81.8975 171.121 83.7461C170.913 85.3906 170.186 87.1017 170.29 88.6766C171.431 88.0947 171.95 86.6919 172.781 85.7321C173.922 85.8696 174.996 87.2044 176.241 87.6836C176.379 88.4711 175.964 89.4307 176.587 89.978L177.591 88.1975C179.631 89.4988 182.122 89.7043 184.717 89.6696C185.548 91.5531 186.275 93.4709 186.205 95.7308L178.732 99.7031" fill="#FFF540"/>
<path d="M181.085 64.0238C179.215 63.4765 177.867 64.914 176.932 65.8391C175.999 64.092 174.233 63.0306 172.434 62.7224L169.113 63.0306C170.601 59.9156 172.677 57.4836 176.102 56.4572C178.87 56.1489 181.222 57.3808 182.745 59.4349L183.576 61.0794C182.365 61.5239 181.293 62.6196 181.085 64.0238Z" fill="#00A650"/>
<path d="M177.244 86.5546V80.8018L179.909 81.4533C179.044 83.131 178.11 84.8421 177.244 86.5546Z" fill="white"/>
<path d="M173.921 84.5687C174.579 83.3702 175.167 82.1382 176.239 81.1104V85.8701L173.921 84.5687Z" fill="#00A650"/>
<path d="M161.465 112.509L157.486 113.331C163.576 110.866 170.184 107.202 175.755 102.305C172.225 107.202 166.586 110.009 161.465 112.509Z" fill="#00A650"/>
<path d="M173.091 79.2959L175.582 80.1179L171.429 86.3847L173.091 79.2959Z" fill="white"/>
<path d="M171.604 81.9309C170.392 80.9379 169.665 79.1573 168.938 77.6504L172.26 78.8141C172.156 79.8765 171.637 80.8352 171.604 81.9309Z" fill="#00A650"/>
<path d="M167.626 106.414C167.418 106.756 167.383 107.167 167.279 107.578C162.609 110.249 158.042 113.16 152.505 113.81C152.366 113.399 152.713 112.852 152.852 112.338C155.135 99.9086 152.366 88.6766 150.671 76.8294C149.322 72.6531 148.215 67.9615 145.862 64.5029C151.744 65.907 157.903 67.1391 162.816 70.5975C162.54 72.4809 163.785 73.7489 164.304 75.357C167.418 84.9113 168.006 96.4836 167.626 106.414Z" fill="#FFF540"/>
<path d="M163.128 69.4328C151.053 63.2358 134.791 60.5301 120.295 64.1941C111.748 66.7289 103.549 70.1177 97.528 77.6511C103.063 63.4759 117.353 56.251 132.231 56.4564C144.375 57.0385 155.829 59.0926 165.793 64.8455C164.721 66.3178 163.302 67.6522 163.129 69.4328" fill="#40BB6A"/>
<path d="M151.329 113.81C144.997 114.563 138.182 113.81 131.573 113.81C134.098 99.1894 133.441 82.549 130.258 68.3061L128.598 63.8549C133.649 63.2728 139.634 63.444 144.685 64.3688C150.879 73.066 151.086 84.5356 152.333 95.4244C152.506 101.553 153.682 108.333 151.329 113.812" fill="#FFF540"/>
<path d="M130.57 113.672C124.238 113.81 118.528 112.988 112.821 111.207C115 97.1684 114.689 81.556 111.159 68.3059C116.349 66.1142 121.713 64.4712 127.595 64.0254C130.708 69.7434 131.123 76.5572 131.746 83.2684C132.369 93.1991 132.957 104.121 130.57 113.674" fill="#FFF540"/>
<path d="M111.988 110.865C107.941 109.838 103.892 107.133 100.189 104.463C94.5152 97.5793 96.0715 85.4584 98.8743 77.6516C101.573 73.5431 106.038 70.8722 110.154 68.7832C112.645 76.1109 112.923 83.7123 113.476 91.7931C113.476 97.9569 112.991 104.701 111.988 110.865Z" fill="#FFF540"/>
<path d="M81.5784 112.029C82.2013 111.036 82.9972 110.181 82.927 108.879C89.3633 109.256 95.2451 107.646 101.195 106.414C102.961 108.16 104.759 108.845 106.662 110.214C99.3276 113.296 89.6396 114.118 81.5784 112.029Z" fill="#00A650"/>
<path d="M95.691 78.1659C88.9796 76.1115 82.5786 72.8241 75.2777 72.7214C74.2056 74.7758 74.6195 77.4464 74.2742 79.809C74.0318 84.6367 74.5156 92.513 75.762 98.3673C77.4222 102.991 84.3427 105.763 80.917 111.207C76.0736 117.645 68.8416 111.31 62.1639 112.852C55.833 113.091 49.5697 115.934 43.5504 112.988C41.4744 111.277 40.0207 108.812 40.8852 105.935C42.0274 103.264 45.0029 101.484 48.0481 101.655C51.5767 102.271 54.7257 103.846 58.6696 103.47C61.4385 103.298 63.9295 102.202 65.6587 99.8393C67.2503 97.306 67.3541 93.9506 67.458 90.9714C67.458 82.6507 67.942 74.0911 69.4648 66.148C70.1565 64.88 70.1565 63.1688 71.7834 62.3811C82.5083 61.6968 90.6399 68.0992 100.847 69.1257C98.8053 71.8311 96.8684 74.9131 95.691 78.1661" fill="#40BB6A"/>
<path d="M88.0814 107.578C87.4585 107.407 87.1818 106.55 87.078 105.935C85.0361 99.5653 83.9288 93.0599 84.8971 85.8695C88.3228 84.3973 92.233 82.9253 94.8629 80.9391C94.6552 83.0611 93.548 84.9793 94.2046 87.2044C95.0691 87.0335 95.0005 85.9376 95.2082 85.2182C95.8664 83.3014 95.7962 80.9391 97.215 79.4668C95.5887 86.1778 94.4123 95.2863 97.5266 101.997C96.4193 100.799 94.9666 99.771 94.7238 98.1959L94.3774 97.8876C93.4089 98.6751 94.7238 99.3598 94.7238 100.182L99.845 105.284C96.0391 106.311 92.233 107.304 88.0814 107.578Z" fill="#FFF540"/>
<path d="M75.2803 87.3772V83.919C80.2628 82.1714 85.4526 80.9398 89.8804 77.9951C91.542 78.405 93.0984 79.0896 94.5525 79.9798C88.5316 83.4048 82.1307 85.8703 75.2803 87.377" fill="#40BB6A"/>
<path d="M75.1078 82.2755L75.6255 74.0586C79.8122 74.3654 83.9648 75.8044 87.9086 77.1739C84.0337 79.8794 79.6746 81.2825 75.1078 82.2755Z" fill="white"/>
<path d="M83.0982 107.922C83.3059 102.716 76.9751 101.998 76.5949 97.0675C75.9715 94.2591 75.8325 91.28 75.4524 88.3354L83.9292 86.041C83.4098 93.3341 84.4132 101.141 86.9044 107.749L83.0982 107.922Z" fill="#FFF540"/>
<path d="M66.1437 88.8491C61.6118 89.5338 55.1418 91.999 51.3694 88.0268L49.882 87.5129C55.3146 87.8893 61.024 87.0685 66.1437 85.7324V88.8491Z" fill="#40BB6A"/>
<path d="M65.66 96.0738C64.1375 95.9364 62.373 94.8404 60.8166 93.9502L57.1832 91.3141C59.9174 90.5598 63.3766 90.8001 66.1444 89.8418C66.2145 91.9988 66.0754 94.0876 65.66 96.0738Z" fill="#FFF540"/>
<path d="M61.994 101.484C55.6278 104.772 50.4381 98.8134 44.382 100.354C42.6179 99.9092 40.3348 99.737 38.3964 100.525C37.4968 101.279 36.3207 101.005 35.4212 100.833C33.2064 101.073 30.6467 101.381 28.9512 103.298C28.7786 101.998 28.7786 101.005 29.4354 99.8398C30.5777 98.3341 32.2381 96.8273 34.106 97.2383C35.421 97.5467 37.4632 98.7786 38.3962 97.3745C36.0439 96.862 33.414 95.8342 32.273 93.4371C31.8927 91.8967 32.0653 89.74 33.414 88.5066C38.2585 84.7399 45.0051 87.8566 50.195 89.0204C55.8005 90.9039 59.7101 95.6637 65.3156 97.5467C64.969 99.1897 63.5165 100.799 61.9938 101.484" fill="#00A650"/>
<path d="M38.9138 107.407C38.5333 110.249 40.574 111.824 42.2358 113.672C41.4748 114.427 40.1598 113.536 39.2254 113.81C37.1494 113.057 35.0038 111.482 34.4156 109.221C34.2079 106.071 35.6618 103.435 38.2567 101.998C39.6406 101.346 41.2322 100.628 42.8924 101.175C40.7831 102.477 38.741 104.942 38.9138 107.407Z" fill="#00A650"/>
<path d="M29.9536 44.9528C23.5875 53.9583 16.4594 64.6416 21.3044 76.1806C23.6565 81.8637 30.2652 84.3639 35.9044 85.7331C34.5908 86.2472 32.2725 87.0694 31.6142 89.0207C25.2133 86.5555 18.4318 81.0083 17.3256 73.8862C14.8346 57.2459 28.431 45.8776 35.4202 32.6275C38.6734 24.4095 37.67 13.4873 32.4448 6.50098C35.2826 10.0621 38.3266 14.7885 38.3952 19.8218C39.0872 23.5538 38.742 27.6621 37.427 30.9845C35.9042 36.2232 32.6874 40.2633 29.9536 44.9538" fill="#40BB6A"/>
<path d="M36.596 24.5782C35.9043 24.6131 34.7281 24.4421 33.9324 24.7504C35.1787 20.4353 35.8355 16.8407 34.7632 12.252C36.112 16.2921 36.9426 19.8534 36.596 24.5782Z" fill="#FFF540"/>
<path d="M31.2686 38.2046C29.2267 37.0753 26.9432 36.5267 24.452 36.5616C27.7037 33.2062 30.6804 29.5766 33.4128 25.742C34.4163 25.6726 35.4197 25.1254 36.4233 25.5698C35.8353 30.3642 34.1398 34.3019 31.2683 38.2046" fill="#FFF540"/>
<path d="M32.7563 108.88C32.8952 110.625 34.3479 111.756 35.2475 113.16C33.7246 113.707 31.3026 113.673 29.9537 112.509C28.7426 111.516 28.1195 110.317 28.1195 108.88C28.1897 106.893 28.7777 104.36 30.9221 103.298C32.5137 102.818 33.7599 101.449 35.7667 101.998C33.7597 103.744 33.5169 106.517 32.7563 108.88" fill="#00A650"/>
<path d="M27.2899 101.175C26.5277 103.093 28.8112 104.633 27.1159 106.106L26.9433 107.236C24.9713 106.517 23.2074 105.25 21.4767 103.949C21.234 97.9903 24.4521 93.0598 28.9501 88.8486L31.0961 89.8416C30.3003 91.9638 30.9922 94.2932 32.4447 95.9013C30.1965 96.7237 27.8781 98.8125 27.2899 101.175Z" fill="#FFF540"/>
<path d="M22.6178 50.8766C19.7815 49.4042 16.91 47.9668 13.1726 48.5822L23.4489 37.7278C25.9399 36.8722 28.5348 37.7627 30.6108 38.8933C27.9119 42.4196 25.3172 46.9043 22.6181 50.8766" fill="#FFF540"/>
<path d="M24.6248 92.6156C22.5155 95.9018 20.2308 99.4294 20.4732 103.297C15.3184 99.9421 11.5459 94.9782 8.50195 89.978C8.6058 88.5059 9.71324 87.4795 10.3363 86.2114C12.7572 83.4043 15.4561 81.007 18.639 79.4668C20.7497 83.096 24.6949 86.2457 28.1192 88.1974C27.047 89.8419 25.5244 90.903 24.6248 92.6156Z" fill="#FFF540"/>
<path d="M19.9893 55.634C18.6391 58.4073 17.7746 61.352 16.9789 64.3658C12.5159 64.2964 7.25604 65.2895 3.86511 67.9604C4.97238 61.3171 7.87897 55.3602 11.9967 49.8811C15.4913 48.1699 19.0548 50.1215 22.1339 51.3535C21.5122 52.8603 20.7164 54.2296 19.9893 55.634Z" fill="#FFF540"/>
<path d="M18.1548 78.6459C14.107 80.9406 9.9546 84.6043 7.84528 88.8503C4.97239 83.4058 2.34382 76.7281 3.69233 69.2987C7.53373 66.696 11.8239 64.8474 16.667 65.1891C15.9751 69.5376 15.9753 74.6405 18.1548 78.6459Z" fill="#FFF540"/>
<path d="M80.3245 102.884C80.3245 102.884 81.8824 104.253 82.4004 105.452C82.9195 106.649 83.0962 107.921 83.0962 107.921L86.9026 107.749L85.3417 102.598L80.3245 102.884" fill="#DDD200"/>
<path d="M86.0334 102.427L87.4748 107.563C87.4748 107.563 90.5891 107.563 93.7609 106.878C95.539 106.493 99.8432 105.284 99.8432 105.284L95.0295 100.486L86.0334 102.427Z" fill="#DDD200"/>
<path d="M94.5126 98.0322C94.5126 98.0322 94.9743 99.2878 95.5509 99.9725C96.1264 100.657 97.5269 101.998 97.5269 101.998L96.2429 97.8613C96.2429 97.8613 96.6457 98.7169 95.6662 98.546C94.6867 98.3754 94.5126 98.0322 94.5126 98.0322Z" fill="#DDD200"/>
<path d="M96.9916 97.8613C96.9916 97.8613 96.9341 98.5462 97.856 100.6C98.7779 102.654 99.9893 104.424 99.9893 104.424C99.9893 104.424 103.853 107.677 105.583 108.532C107.314 109.388 111.989 110.866 111.989 110.866L112.907 103.739C112.907 103.739 108.87 103.51 105.296 102.541C101.721 101.571 100.163 101.114 99.2974 100.43C98.4316 99.7449 96.9916 97.8613 96.9916 97.8613Z" fill="#DDD200"/>
<path d="M113.598 103.796C113.598 103.796 113.367 106.478 113.252 107.449C113.137 108.419 112.675 111.157 112.675 111.157C112.675 111.157 119.019 112.927 121.499 113.27C123.979 113.613 130.494 113.897 130.494 113.897C130.494 113.897 131.879 108.076 131.879 106.649C131.879 105.222 131.994 105.336 131.994 105.336C131.994 105.336 124.381 104.881 122.709 104.765C121.037 104.651 113.598 103.796 113.598 103.796Z" fill="#DDD200"/>
<path d="M132.571 105.336C132.571 105.336 132.224 109.103 132.109 109.73L131.36 113.84C131.36 113.84 139.203 114.296 141.508 114.296C144.45 114.296 151.254 114.068 151.254 114.068C151.254 114.068 152.235 111.272 152.465 109.844C152.697 108.418 152.869 105.393 152.869 105.393C152.869 105.393 147.103 106.021 142.72 105.964C138.336 105.907 132.571 105.336 132.571 105.336" fill="#DDD200"/>
<path d="M153.56 105.28C153.56 105.28 153.273 108.532 153.214 109.389C153.155 110.246 152.292 113.783 152.292 113.783C152.292 113.783 155.291 114.068 160.365 111.443C165.439 108.818 167.746 107.276 167.746 107.276V100.086C167.746 100.086 163.536 102.483 161.23 103.339C158.925 104.194 153.56 105.279 153.56 105.279" fill="#DDD200"/>
<path d="M168.381 99.6293L168.208 107.163C168.208 107.163 170.918 105.366 173.859 103.054C176.8 100.743 177.405 99.9432 178.357 98.8307C179.308 97.7181 180.392 95.4224 180.392 95.4224C180.392 95.4224 180.144 96.8057 179.712 97.6612C179.28 98.5168 178.73 99.703 178.73 99.703L186.203 95.7308C186.203 95.7308 186.153 94.0459 185.854 92.2682C185.622 90.8988 184.988 89.7002 184.988 89.7002C184.988 89.7002 178.761 93.8086 177.203 94.7501" fill="#DDD200"/>
<path d="M26.9433 107.237L27.1159 106.106C27.1159 106.106 27.7782 105.58 27.8219 104.981C27.8653 104.381 27.13 102.113 27.13 102.113C27.13 102.113 25.2268 102.156 24.1883 101.599C23.1498 101.042 21.8095 99.9297 21.8095 99.9297C21.8095 99.9297 21.4643 101.128 21.4643 101.899C21.4643 102.668 21.3772 103.91 21.3772 103.91C21.3772 103.91 22.7175 104.938 23.6691 105.58C24.6205 106.221 26.9433 107.237 26.9433 107.237Z" fill="#DDD537"/>
<path d="M8.50195 89.9775C8.50195 89.9775 9.7721 93.5886 13.376 97.3472C16.6053 100.714 20.4732 103.297 20.4732 103.297C20.4732 103.297 20.4691 102.255 20.5841 101.455C20.6992 100.655 21.1035 99.3442 21.1035 99.3442C21.1035 99.3442 17.5274 98.2596 14.9324 96.2624" fill="#DDD537"/>
<path d="M40.7102 106.221C40.7102 106.221 39.8454 108.275 41.0565 110.244C42.2676 112.214 42.613 112.726 43.91 113.326C45.2081 113.925 47.7162 114.268 49.3595 114.353C51.0029 114.437 60.8734 112.804 62.1658 112.851C63.458 112.898 64.0649 112.385 66.2274 112.812C68.3899 113.24 74.9637 114.61 76.8669 114.011C78.7699 113.411 79.7217 112.983 81.3651 110.586C83.0084 108.189 81.7104 106.821 81.7104 106.821C81.7104 106.821 80.7586 109.473 76.8669 110.672C72.9737 111.871 68.6496 109.987 64.0649 109.816C59.4801 109.646 55.07 111.58 48.5821 111.7C43.91 111.784 40.7102 106.221 40.7102 106.221Z" fill="#00A650"/>
<path d="M180.837 81.1414L178.246 87.0343C178.246 87.0343 182.913 88.1607 185.335 88.1607C187.758 88.1607 192.428 87.133 197.271 84.2219C202.116 81.3121 204.364 79.7718 207.651 79.086C210.938 78.4001 225.579 77.5151 225.579 77.5151C225.579 77.5151 226.712 75.0414 227.719 74.6344C228.727 74.2291 231.006 73.2652 232.044 73.7789C233.083 74.2927 234.712 75.0497 234.712 75.0497C234.712 75.0497 238.618 71.5539 239.829 67.1027C241.041 62.6515 240.349 61.4524 240.349 59.5692C240.349 57.6857 239.138 56.1455 239.138 56.1455C239.138 56.1455 239.31 64.5344 235.678 67.6164C232.044 70.6969 227.893 72.9235 224.087 73.9495C220.281 74.9757 211.458 76.176 206.267 77.7164C201.078 79.258 195.888 82.6816 189.833 83.3665C183.779 84.0512 180.837 83.7095 180.837 83.7095V81.1414Z" fill="#00A650"/>
<path d="M226.107 73.0921L228.24 73.8338L227.086 72.4072" fill="black"/>
<path d="M34.48 167.82C33.96 167.5 33.48 167.1 33.04 166.62C32.6 166.18 32.5 165.54 32.74 164.7C32.7 164.22 32.72 163.76 32.8 163.32C32.92 162.88 33 162.58 33.04 162.42C33.24 162.42 33.36 162.32 33.4 162.12C33.44 161.88 33.46 161.68 33.46 161.52C33.46 161.2 33.58 160.66 33.82 159.9C34.06 159.14 34.3 158.34 34.54 157.5C34.86 156.82 35.16 156.1 35.44 155.34C35.76 154.58 35.92 154.12 35.92 153.96C35.92 153.64 36 153.32 36.16 153C36.32 152.64 36.5 152.3 36.7 151.98C36.9 151.5 37.04 150.98 37.12 150.42C37.24 149.82 37.3 149.36 37.3 149.04C37.54 148.52 37.8 147.96 38.08 147.36C38.36 146.76 38.58 146.14 38.74 145.5C38.98 144.82 39.34 143.82 39.82 142.5C40.3 141.14 40.8 139.78 41.32 138.42C41.68 137.66 42.02 136.88 42.34 136.08C42.7 135.24 43.02 134.54 43.3 133.98C43.58 133.38 43.78 133.08 43.9 133.08C43.9 133.08 43.9 133.02 43.9 132.9C43.9 132.74 43.9 132.58 43.9 132.42C43.9 132.22 44.06 131.84 44.38 131.28C44.7 130.68 45 130.06 45.28 129.42C45.68 128.82 45.96 128.26 46.12 127.74C46.28 127.18 46.36 126.9 46.36 126.9C46.36 126.9 46.44 126.78 46.6 126.54C46.76 126.26 46.92 126.04 47.08 125.88C48.12 125.32 49 125.04 49.72 125.04C50.48 125.04 51 125.52 51.28 126.48C51.6 127.36 51.74 127.98 51.7 128.34C51.66 128.66 51.52 129.06 51.28 129.54C50.96 130.26 50.54 131.18 50.02 132.3C49.5 133.38 48.96 134.54 48.4 135.78C47.84 137.02 47.3 138.22 46.78 139.38C46.3 140.5 45.9 141.46 45.58 142.26C45.3 143.06 45.16 143.56 45.16 143.76L42.64 149.94C42.48 150.22 42.22 150.94 41.86 152.1C41.5 153.22 41.08 154.58 40.6 156.18C40.12 157.74 39.62 159.34 39.1 160.98C38.62 162.58 38.14 164.04 37.66 165.36C37.42 166.04 37.2 166.6 37 167.04C36.8 167.52 36.6 167.88 36.4 168.12C36.2 168.36 35.96 168.48 35.68 168.48C35.52 168.48 35.34 168.42 35.14 168.3C34.94 168.18 34.72 168.02 34.48 167.82ZM55.72 167.7C55.36 167.74 54.86 167.56 54.22 167.16C53.62 166.8 52.96 166.34 52.24 165.78C51.56 165.22 50.9 164.64 50.26 164.04C49.66 163.44 49.18 162.92 48.82 162.48C48.18 161.56 47.36 160.32 46.36 158.76C45.4 157.2 44.68 155.56 44.2 153.84C43.92 152.56 43.62 151.54 43.3 150.78C43.02 149.98 42.88 149.28 42.88 148.68L42.94 144.96L47.32 144.66C47.52 146.82 47.84 148.62 48.28 150.06C48.72 151.46 49.24 152.72 49.84 153.84C50.32 154.88 50.84 155.9 51.4 156.9C52 157.9 52.66 158.74 53.38 159.42C54.3 160.42 55.12 161.16 55.84 161.64C56.56 162.12 57.1 162.36 57.46 162.36C58.22 162.72 58.78 163.06 59.14 163.38C59.5 163.7 59.74 163.98 59.86 164.22C59.98 164.46 60.02 164.68 59.98 164.88C60.02 165 60 165.26 59.92 165.66C59.84 166.1 59.72 166.52 59.56 166.92C59.4 167.36 59.18 167.64 58.9 167.76C58.62 168.04 58.26 168.2 57.82 168.24C57.38 168.32 56.68 168.14 55.72 167.7ZM41.8 144.78L46.18 141.54C46.3 141.42 46.64 141.1 47.2 140.58C47.8 140.02 48.94 139.1 50.62 137.82L58.54 131.4C59.54 130.88 60.46 130.3 61.3 129.66C62.14 129.02 62.84 128.52 63.4 128.16C64.08 127.68 64.78 127.18 65.5 126.66C66.22 126.14 66.66 125.9 66.82 125.94C67.14 125.78 67.52 125.94 67.96 126.42C68.4 126.86 68.76 127.4 69.04 128.04C69.36 128.64 69.5 129.1 69.46 129.42C69.54 129.82 69.48 130.16 69.28 130.44C69.08 130.72 68.56 131.1 67.72 131.58C66.72 132.02 65.92 132.44 65.32 132.84C64.76 133.24 64.44 133.54 64.36 133.74C64.36 133.74 63.94 134.06 63.1 134.7C62.26 135.34 61.26 136.06 60.1 136.86C58.5 137.94 57.18 138.9 56.14 139.74C55.14 140.54 54.48 141.18 54.16 141.66C54 141.66 53.84 141.72 53.68 141.84C53.56 141.96 53.42 142 53.26 141.96C53.26 141.96 53.1 142.08 52.78 142.32C52.46 142.52 52.22 142.74 52.06 142.98C51.98 143.18 51.8 143.44 51.52 143.76C51.28 144.08 50.98 144.22 50.62 144.18C50.34 144.34 49.84 144.68 49.12 145.2C48.4 145.68 47.64 146.22 46.84 146.82C46.08 147.42 45.42 147.96 44.86 148.44C44.3 148.92 44 149.2 43.96 149.28L41.8 144.78ZM62.7147 178.98C62.5547 178.98 62.3147 178.98 61.9947 178.98C61.7147 179.02 61.4747 178.86 61.2747 178.5C61.1147 178.3 60.8747 177.9 60.5547 177.3C60.2347 176.74 60.1747 175.94 60.3747 174.9C60.5747 174.22 60.7347 173.54 60.8547 172.86C60.9747 172.22 61.0347 171.74 61.0347 171.42C61.0347 171.26 61.0747 170.94 61.1547 170.46C61.2747 170.02 61.3347 169.7 61.3347 169.5C61.5347 169.18 61.6947 168.74 61.8147 168.18C61.9347 167.62 61.9947 167.12 61.9947 166.68C61.9947 166.2 62.2347 165.76 62.7147 165.36C62.7147 165.04 62.7747 164.64 62.8947 164.16C63.0547 163.68 63.1347 163.36 63.1347 163.2C63.2547 162.64 63.5147 161.66 63.9147 160.26C64.3547 158.82 64.8747 157.2 65.4747 155.4C66.1147 153.6 66.7347 151.84 67.3347 150.12C67.9347 148.4 68.4747 146.94 68.9547 145.74C69.4347 144.62 69.8347 143.58 70.1547 142.62C70.4747 141.66 70.6347 140.98 70.6347 140.58C70.6347 140.42 70.6747 140.3 70.7547 140.22C70.8347 140.1 71.0147 139.88 71.2947 139.56C71.6947 139.16 72.2147 139.02 72.8547 139.14C73.5347 139.22 74.0947 139.42 74.5347 139.74C74.8547 140.26 75.0747 140.74 75.1947 141.18C75.3547 141.58 75.3547 142.22 75.1947 143.1C75.1947 143.7 75.0547 144.26 74.7747 144.78C74.4947 145.26 74.2347 145.66 73.9947 145.98C73.7947 146.26 73.7347 146.38 73.8147 146.34C75.5747 145.26 77.1547 144.68 78.5547 144.6C79.9947 144.48 81.1947 144.72 82.1547 145.32C83.1547 145.88 83.9147 146.66 84.4347 147.66C84.9547 148.66 85.2147 149.74 85.2147 150.9C85.2147 151.38 85.0547 152.02 84.7347 152.82C84.4147 153.62 84.0547 154.38 83.6547 155.1C83.2547 155.78 82.9347 156.24 82.6947 156.48C82.5347 156.48 82.3747 156.62 82.2147 156.9C82.0547 157.14 81.8947 157.42 81.7347 157.74C81.4147 158.14 80.8747 158.6 80.1147 159.12C79.3947 159.6 78.6547 160 77.8947 160.32C77.1347 160.6 76.5947 160.68 76.2747 160.56C76.2747 160.56 76.2147 160.6 76.0947 160.68C76.0147 160.76 75.9747 160.9 75.9747 161.1C75.9747 161.18 75.6947 161.34 75.1347 161.58C74.5747 161.82 73.9147 162.04 73.1547 162.24C72.3947 162.44 71.6947 162.54 71.0547 162.54C70.2147 162.54 69.6147 162.38 69.2547 162.06C69.1747 162.14 69.0747 162.26 68.9547 162.42C68.8747 162.58 68.8347 162.72 68.8347 162.84C68.8347 163.08 68.7347 163.46 68.5347 163.98C68.3747 164.5 68.1747 164.96 67.9347 165.36C67.6947 165.8 67.4747 166.02 67.2747 166.02C67.2747 166.02 67.2347 166.08 67.1547 166.2C67.0747 166.32 67.1147 166.48 67.2747 166.68C67.2747 166.68 67.2547 166.9 67.2147 167.34C67.2147 167.82 67.1147 168.22 66.9147 168.54C66.9147 168.86 66.8547 169.34 66.7347 169.98C66.6147 170.62 66.4747 171.1 66.3147 171.42C66.3147 171.9 66.2347 172.36 66.0747 172.8C65.9547 173.28 65.8147 173.52 65.6547 173.52C65.4947 173.56 65.3947 173.8 65.3547 174.24C65.3147 174.72 65.2947 175.06 65.2947 175.26C65.2547 176.26 64.9347 177.12 64.3347 177.84C63.7347 178.6 63.1947 178.98 62.7147 178.98ZM70.3947 157.98C70.7147 157.98 71.2947 157.84 72.1347 157.56C72.9747 157.28 73.8547 156.94 74.7747 156.54C75.6947 156.1 76.4147 155.66 76.9347 155.22C77.9747 154.3 78.7747 153.4 79.3347 152.52C79.9347 151.64 79.8947 150.66 79.2147 149.58C78.8947 149.02 78.3747 148.8 77.6547 148.92C76.9747 149 76.2147 149.32 75.3747 149.88C74.5347 150.44 73.6747 151.14 72.7947 151.98C72.3147 152.5 71.8747 153.1 71.4747 153.78C71.0747 154.46 70.7347 155.12 70.4547 155.76C70.2147 156.4 70.0747 156.94 70.0347 157.38C69.9947 157.78 70.1147 157.98 70.3947 157.98ZM91.8105 164.58C91.2905 164.58 90.8705 164.48 90.5505 164.28C90.2705 164.08 89.9105 163.8 89.4705 163.44C88.7105 162.64 88.0905 161.78 87.6105 160.86C87.1705 159.94 87.0105 159.14 87.1305 158.46C87.2505 158.14 87.2905 157.84 87.2505 157.56C87.2505 157.24 87.2505 157.08 87.2505 157.08C87.0505 156.88 86.9905 156.76 87.0705 156.72C87.1505 156.64 87.2305 156.52 87.3105 156.36C87.5505 156.36 87.6305 156.14 87.5505 155.7C87.4705 155.38 87.5905 154.7 87.9105 153.66C88.2705 152.58 88.7505 151.56 89.3505 150.6C89.5905 150.2 89.9505 149.68 90.4305 149.04C90.9105 148.36 91.4305 147.7 91.9905 147.06C92.5905 146.38 93.1305 145.84 93.6105 145.44C94.6105 144.6 95.5305 143.92 96.3705 143.4C97.2505 142.88 98.1305 142.52 99.0105 142.32C99.8905 142.12 100.79 142.02 101.71 142.02C102.67 142.02 103.45 142.34 104.05 142.98C104.97 143.38 105.61 143.92 105.97 144.6C106.37 145.28 106.63 146.16 106.75 147.24C106.87 148.44 106.75 149.92 106.39 151.68C106.03 153.4 105.05 155.4 103.45 157.68C102.45 159.12 101.47 160.24 100.51 161.04C99.5505 161.84 98.4905 162.58 97.3305 163.26C96.4905 163.82 95.5905 164.16 94.6305 164.28C93.6705 164.4 92.7305 164.5 91.8105 164.58ZM97.9305 157.26C98.8105 156.5 99.4305 155.66 99.7905 154.74C100.19 153.82 100.61 152.74 101.05 151.5C101.21 151.26 101.31 150.86 101.35 150.3C101.43 149.74 101.45 149.2 101.41 148.68C101.37 148.12 101.23 147.8 100.99 147.72C100.63 147.44 100.27 147.38 99.9105 147.54C99.5505 147.66 99.0905 147.92 98.5305 148.32C97.3305 149.32 96.2105 150.48 95.1705 151.8C94.1705 153.08 93.4705 154.66 93.0705 156.54C92.9505 157.54 93.0505 158.3 93.3705 158.82C93.7305 159.3 94.2905 159.44 95.0505 159.24C95.8505 159 96.8105 158.34 97.9305 157.26ZM111.569 165.18C111.249 165.1 110.829 164.8 110.309 164.28C109.789 163.72 109.309 163.1 108.869 162.42C108.469 161.74 108.269 161.18 108.269 160.74C108.469 160.3 108.729 159.54 109.049 158.46C109.369 157.34 109.769 156.06 110.249 154.62C110.569 154.18 110.809 153.66 110.969 153.06C111.169 152.46 111.349 151.92 111.509 151.44C111.829 150.8 112.189 149.98 112.589 148.98C113.029 147.94 113.469 146.9 113.909 145.86C114.349 144.78 114.729 143.88 115.049 143.16C115.249 142.8 115.449 142.44 115.649 142.08C115.849 141.72 116.029 141.36 116.189 141C116.189 140.8 116.289 140.62 116.489 140.46C116.689 140.26 116.949 140.12 117.269 140.04C117.469 139.96 117.689 139.9 117.929 139.86C118.209 139.82 118.489 139.8 118.769 139.8C119.329 139.8 119.829 140.16 120.269 140.88C120.749 141.56 120.989 142.18 120.989 142.74C120.989 143.58 120.849 144.28 120.569 144.84C120.329 145.36 120.049 145.82 119.729 146.22C119.409 146.58 119.109 146.96 118.829 147.36C118.589 147.76 118.469 148.28 118.469 148.92C118.469 149.08 118.609 149.1 118.889 148.98C119.169 148.82 119.489 148.64 119.849 148.44C120.169 148.28 120.629 147.96 121.229 147.48C121.869 147 122.529 146.52 123.209 146.04C123.889 145.52 124.449 145.2 124.889 145.08C125.769 144.48 126.469 144.04 126.989 143.76C127.509 143.44 127.889 143.28 128.129 143.28C128.569 143.28 129.029 143.56 129.509 144.12C129.989 144.64 130.229 145.14 130.229 145.62C130.229 146.02 130.069 146.42 129.749 146.82C129.469 147.18 129.069 147.58 128.549 148.02C127.709 148.7 126.729 149.38 125.609 150.06C124.489 150.7 123.469 151.26 122.549 151.74C121.669 152.18 121.149 152.5 120.989 152.7C120.989 152.74 121.129 152.98 121.409 153.42C121.729 153.82 122.069 154.28 122.429 154.8C122.669 155.24 122.889 155.68 123.089 156.12C123.329 156.52 123.529 156.9 123.689 157.26C124.209 158.34 124.649 159.18 125.009 159.78C125.409 160.34 125.869 160.68 126.389 160.8C126.909 160.88 127.669 160.78 128.669 160.5C129.429 160.26 130.009 160.4 130.409 160.92C130.849 161.44 131.069 161.92 131.069 162.36C131.069 162.56 130.949 162.78 130.709 163.02C130.509 163.26 130.249 163.52 129.929 163.8C129.289 164.32 128.529 164.78 127.649 165.18C126.809 165.62 126.169 165.84 125.729 165.84C125.289 165.84 124.809 165.72 124.289 165.48C123.769 165.24 123.109 164.72 122.309 163.92C121.509 163.12 120.449 161.86 119.129 160.14C119.129 159.98 119.029 159.72 118.829 159.36C118.629 158.96 118.429 158.56 118.229 158.16C118.069 157.84 117.909 157.58 117.749 157.38C117.629 157.14 117.549 157 117.509 156.96C117.509 157.16 117.469 157.12 117.389 156.84C117.349 156.56 117.249 156.26 117.089 155.94C116.929 155.58 116.689 155.4 116.369 155.4C116.209 155.4 115.989 155.66 115.709 156.18C115.429 156.66 115.129 157.26 114.809 157.98C114.609 158.46 114.409 158.98 114.209 159.54C114.009 160.1 113.849 160.66 113.729 161.22C113.649 161.74 113.609 162.24 113.609 162.72C113.609 163.32 113.429 163.88 113.069 164.4C112.749 164.92 112.249 165.18 111.569 165.18ZM141.231 164.52C140.391 164.68 139.751 164.64 139.311 164.4C138.911 164.12 138.491 163.78 138.051 163.38C137.411 163.06 136.831 162.62 136.311 162.06C135.791 161.46 135.391 160.84 135.111 160.2C134.831 159.56 134.711 159.06 134.751 158.7C134.871 157.3 135.191 155.78 135.711 154.14C136.271 152.5 136.971 150.9 137.811 149.34C138.691 147.78 139.671 146.4 140.751 145.2C141.871 143.96 143.071 143.06 144.351 142.5C145.151 142.18 146.011 142.06 146.931 142.14C147.851 142.22 148.471 142.6 148.791 143.28C149.391 144.44 149.251 145.18 148.371 145.5C148.251 145.5 148.111 145.56 147.951 145.68C147.791 145.76 147.711 145.88 147.711 146.04C147.871 146.12 148.311 146.14 149.031 146.1C149.751 146.02 150.471 145.9 151.191 145.74C151.951 145.54 152.451 145.34 152.691 145.14C152.931 145.02 153.111 144.96 153.231 144.96C153.351 144.96 153.651 145 154.131 145.08C154.811 145.28 155.151 145.52 155.151 145.8C155.151 145.96 155.211 146.22 155.331 146.58C155.451 146.9 155.591 147.06 155.751 147.06C156.031 147.1 156.091 147.38 155.931 147.9C155.811 148.42 155.351 148.96 154.551 149.52C153.791 150 153.311 150.32 153.111 150.48C152.951 150.6 152.931 150.88 153.051 151.32C153.371 152.08 153.351 153 152.991 154.08C152.631 155.16 152.031 156.28 151.191 157.44C150.351 158.6 149.351 159.7 148.191 160.74C147.071 161.74 145.891 162.6 144.651 163.32C143.451 164 142.311 164.4 141.231 164.52ZM141.411 159.48C141.571 159.48 141.851 159.4 142.251 159.24C142.651 159.04 142.971 158.88 143.211 158.76C143.371 158.6 143.571 158.42 143.811 158.22C144.091 157.98 144.311 157.84 144.471 157.8C144.631 157.8 144.731 157.74 144.771 157.62C144.811 157.46 144.951 157.16 145.191 156.72C145.431 156.24 145.911 155.54 146.631 154.62C147.431 153.74 147.951 153.04 148.191 152.52C148.431 151.96 148.451 151.36 148.251 150.72C148.211 150.56 148.091 150.46 147.891 150.42C147.731 150.38 147.511 150.28 147.231 150.12C146.831 150.12 146.551 150.22 146.391 150.42C146.271 150.58 145.991 150.48 145.551 150.12L144.591 148.92L143.571 149.94C142.931 150.58 142.351 151.38 141.831 152.34C141.351 153.3 140.971 154.28 140.691 155.28C140.411 156.28 140.231 157.16 140.151 157.92C140.111 158.52 140.211 158.92 140.451 159.12C140.691 159.32 141.011 159.44 141.411 159.48ZM162.444 165.6C162.284 165.56 162.104 165.54 161.904 165.54C161.704 165.54 161.504 165.52 161.304 165.48C159.504 164.32 158.344 163.02 157.824 161.58C157.344 160.1 157.244 158.54 157.524 156.9C157.844 155.26 158.304 153.6 158.904 151.92C159.144 151.24 159.444 150.56 159.804 149.88C160.204 149.16 160.624 148.46 161.064 147.78C161.624 147.02 162.224 146.32 162.864 145.68C163.544 145 164.244 144.4 164.964 143.88C165.684 143.36 166.404 142.94 167.124 142.62C167.604 142.3 168.004 142.1 168.324 142.02C168.684 141.94 169.124 141.76 169.644 141.48C169.884 141.48 170.244 141.5 170.724 141.54C171.204 141.54 171.664 141.66 172.104 141.9C172.544 142.1 172.884 142.46 173.124 142.98C173.364 143.46 173.364 144.18 173.124 145.14C172.724 145.22 172.304 145.34 171.864 145.5C171.464 145.62 171.044 145.78 170.604 145.98C169.004 146.7 167.584 147.62 166.344 148.74C165.104 149.86 164.264 151 163.824 152.16C163.424 153.16 163.104 154.14 162.864 155.1C162.624 156.06 162.504 156.88 162.504 157.56C162.504 158.48 162.704 159.06 163.104 159.3C163.464 159.54 163.844 159.66 164.244 159.66C164.644 159.62 165.044 159.48 165.444 159.24C165.844 159 166.224 158.68 166.584 158.28C166.704 158.12 166.824 157.96 166.944 157.8C167.104 157.64 167.244 157.48 167.364 157.32C168.484 155.84 169.464 154.1 170.304 152.1C171.144 150.06 171.664 147.4 171.864 144.12C172.064 143.44 172.224 142.8 172.344 142.2C172.464 141.6 172.564 141.04 172.644 140.52C172.724 140 172.784 139.56 172.824 139.2C172.744 139 172.624 138.76 172.464 138.48C172.344 138.2 172.324 137.96 172.404 137.76C172.244 137.36 172.104 136.96 171.984 136.56C171.904 136.16 171.804 135.76 171.684 135.36C171.364 134.32 170.804 133.56 170.004 133.08C169.204 132.6 168.324 132.32 167.364 132.24C166.404 132.16 165.464 132.26 164.544 132.54C164.144 132.74 163.844 132.84 163.644 132.84C163.484 132.8 163.184 132.84 162.744 132.96C162.144 132.76 161.604 132.38 161.124 131.82C160.644 131.26 160.364 130.66 160.284 130.02C160.204 129.22 160.344 128.62 160.704 128.22C161.064 127.78 161.544 127.46 162.144 127.26C162.744 127.02 163.324 126.84 163.884 126.72C164.124 126.64 164.344 126.58 164.544 126.54C164.784 126.46 165.044 126.42 165.324 126.42C166.004 126.58 166.644 126.64 167.244 126.6C167.884 126.56 168.524 126.7 169.164 127.02C170.084 127.34 170.924 127.68 171.684 128.04C172.444 128.36 173.124 128.94 173.724 129.78C173.884 129.98 174.064 130.18 174.264 130.38C174.504 130.54 174.684 130.72 174.804 130.92C175.244 131.68 175.624 132.52 175.944 133.44C176.304 134.32 176.604 135.22 176.844 136.14C177.244 137.78 177.464 139.5 177.504 141.3C177.584 143.06 177.504 144.84 177.264 146.64C177.024 148.44 176.624 150.18 176.064 151.86C176.024 152.18 175.884 152.46 175.644 152.7C175.444 152.94 175.364 153.22 175.404 153.54C174.684 155.02 173.924 156.48 173.124 157.92C172.324 159.36 171.404 160.7 170.364 161.94C169.324 163.14 168.024 164.14 166.464 164.94C166.064 165.14 165.404 165.32 164.484 165.48C163.564 165.64 162.884 165.68 162.444 165.6ZM195.81 166.02C195.09 166.1 194.45 165.94 193.89 165.54C193.33 165.14 192.89 164.7 192.57 164.22C192.17 163.58 191.87 162.84 191.67 162C191.47 161.12 191.37 160.3 191.37 159.54C191.37 159.5 191.35 159.46 191.31 159.42C191.31 159.38 191.31 159.36 191.31 159.36C191.31 159.32 191.29 159.32 191.25 159.36C190.77 159.88 190.07 160.52 189.15 161.28C188.27 162 187.33 162.64 186.33 163.2C185.37 163.72 184.51 163.96 183.75 163.92C183.27 163.88 182.79 163.66 182.31 163.26C181.87 162.82 181.47 162.32 181.11 161.76C180.75 161.2 180.51 160.7 180.39 160.26C180.23 159.62 180.27 158.58 180.51 157.14C180.75 155.66 181.11 154.02 181.59 152.22C182.11 150.38 182.71 148.62 183.39 146.94C184.07 145.22 184.77 143.82 185.49 142.74C186.25 141.62 186.97 141.06 187.65 141.06C188.25 141.06 188.77 141.38 189.21 142.02C189.65 142.62 189.97 143.16 190.17 143.64C190.41 144.24 190.53 144.66 190.53 144.9C190.53 145.1 190.31 145.44 189.87 145.92C189.47 146.32 189.05 146.98 188.61 147.9C188.17 148.78 187.73 149.78 187.29 150.9C186.85 151.98 186.45 153 186.09 153.96C185.77 154.92 185.51 155.68 185.31 156.24C185.23 156.68 185.15 157.02 185.07 157.26C184.99 157.5 184.93 157.78 184.89 158.1C184.97 158.1 185.05 158.1 185.13 158.1C185.25 158.06 185.35 158.02 185.43 157.98C186.19 157.7 186.97 157.14 187.77 156.3C188.61 155.46 189.43 154.46 190.23 153.3C191.03 152.1 191.79 150.88 192.51 149.64C193.27 148.36 193.99 147.18 194.67 146.1C195.35 144.98 195.95 144.08 196.47 143.4C197.03 142.68 197.49 142.32 197.85 142.32C198.25 142.28 198.73 142.38 199.29 142.62C199.85 142.82 200.31 143.12 200.67 143.52C201.07 143.88 201.23 144.3 201.15 144.78C200.99 145.7 200.57 146.88 199.89 148.32C199.21 149.72 198.51 151.26 197.79 152.94C197.11 154.62 196.61 156.36 196.29 158.16C196.13 159.08 196.19 159.9 196.47 160.62C196.75 161.3 197.17 161.98 197.73 162.66C198.37 163.42 198.41 164.16 197.85 164.88C197.33 165.56 196.65 165.94 195.81 166.02ZM203.721 165.72C203.201 165.56 202.721 165.24 202.281 164.76C201.881 164.28 201.561 163.94 201.321 163.74C201.281 163.62 201.221 163.5 201.141 163.38C201.101 163.26 201.061 163.14 201.021 163.02C201.021 162.62 201.061 162.34 201.141 162.18C201.261 162.02 201.521 161.74 201.921 161.34C202.201 160.9 202.481 160.66 202.761 160.62C203.041 160.58 203.301 160.6 203.541 160.68C204.341 160.08 205.101 159.52 205.821 159C206.581 158.44 207.181 157.84 207.621 157.2C208.181 156.36 208.721 155.5 209.241 154.62C209.801 153.74 210.341 152.86 210.861 151.98C211.061 151.62 211.281 151.2 211.521 150.72C211.761 150.24 212.001 149.76 212.241 149.28C212.481 148.76 212.681 148.32 212.841 147.96C212.441 147.88 212.161 147.8 212.001 147.72C211.841 147.6 211.641 147.46 211.401 147.3C211.281 146.86 211.121 146.38 210.921 145.86C210.761 145.34 210.661 144.94 210.621 144.66C210.621 143.66 211.101 143.04 212.061 142.8C213.261 142.52 214.301 142.34 215.181 142.26C216.061 142.18 216.921 142.04 217.761 141.84C218.561 141.64 219.401 141.58 220.281 141.66C221.161 141.7 221.981 141.88 222.741 142.2C223.141 142.36 223.501 142.58 223.821 142.86C224.141 143.14 224.441 143.52 224.721 144C225.161 144.64 225.421 145.34 225.501 146.1C225.621 146.86 225.661 147.54 225.621 148.14C225.621 148.7 225.641 149.06 225.681 149.22C225.561 149.66 225.381 150.34 225.141 151.26C224.901 152.18 224.621 153.16 224.301 154.2C224.021 155.24 223.741 156.18 223.461 157.02C223.221 157.82 223.061 158.36 222.981 158.64C222.821 159.28 222.601 159.94 222.321 160.62C222.081 161.26 221.921 161.88 221.841 162.48C221.681 163.32 221.341 163.9 220.821 164.22C220.301 164.5 219.841 164.74 219.441 164.94C219.001 165.1 218.601 165.06 218.241 164.82C217.881 164.58 217.541 164.32 217.221 164.04C216.941 163.28 216.781 162.72 216.741 162.36C216.741 161.96 216.861 161.42 217.101 160.74C217.221 160.42 217.441 159.7 217.761 158.58C218.081 157.46 218.441 156.2 218.841 154.8C219.241 153.4 219.621 152.12 219.981 150.96C220.341 149.76 220.581 148.92 220.701 148.44C220.781 148.04 220.841 147.7 220.881 147.42C220.921 147.1 220.921 146.8 220.881 146.52C220.601 146.44 220.201 146.4 219.681 146.4C219.161 146.4 218.681 146.44 218.241 146.52C218.161 146.56 218.061 146.58 217.941 146.58C217.861 146.58 217.781 146.6 217.701 146.64C217.541 147.36 217.341 148.08 217.101 148.8C216.861 149.48 216.561 150.22 216.201 151.02C215.881 151.78 215.481 152.64 215.001 153.6C214.561 154.56 214.021 155.64 213.381 156.84C212.981 157.64 212.581 158.36 212.181 159C211.781 159.64 211.361 160.24 210.921 160.8L210.201 161.76C209.961 162 209.701 162.26 209.421 162.54C209.141 162.82 208.881 163.08 208.641 163.32C208.401 163.52 208.201 163.7 208.041 163.86L206.181 165.3C205.821 165.58 205.441 165.72 205.041 165.72C204.641 165.72 204.201 165.72 203.721 165.72Z" fill="black"/>
</svg>
