<?xml version="1.0" encoding="UTF-8"?>
<!DOCTYPE svg PUBLIC "-//W3C//DTD SVG 1.1//EN" "http://www.w3.org/Graphics/SVG/1.1/DTD/svg11.dtd">
<svg xmlns="http://www.w3.org/2000/svg" version="1.1" width="128px" height="128px" style="shape-rendering:geometricPrecision; text-rendering:geometricPrecision; image-rendering:optimizeQuality; fill-rule:evenodd; clip-rule:evenodd" xmlns:xlink="http://www.w3.org/1999/xlink">
<g><path style="opacity:0.879" fill="#281a11" d="M 32.5,0.5 C 40.7239,0.362537 47.5572,3.36254 53,9.5C 60,10.8333 67,10.8333 74,9.5C 85.0846,-2.02158 96.418,-2.35492 108,8.5C 112.549,15.1111 113.382,22.1111 110.5,29.5C 119.599,39.0323 124.932,50.3656 126.5,63.5C 124.511,79.8619 115.178,88.5286 98.5,89.5C 101.136,95.6136 100.97,101.614 98,107.5C 92.8116,116.195 85.6449,122.529 76.5,126.5C 74.2262,126.03 72.2262,125.03 70.5,123.5C 65.8333,124.833 61.1667,124.833 56.5,123.5C 54.7738,125.03 52.7738,126.03 50.5,126.5C 40.6392,122.143 33.1392,115.143 28,105.5C 26.2773,100.143 26.444,94.8092 28.5,89.5C 5.30791,86.1368 -3.19209,73.1368 3,50.5C 6.5026,42.8204 11.0026,35.8204 16.5,29.5C 12.7224,14.7168 18.0557,5.05017 32.5,0.5 Z"/></g>
<g><path style="opacity:1" fill="#afd25b" d="M 46.5,10.5 C 45.348,13.8151 43.0147,15.9817 39.5,17C 33.1754,17.4995 26.8421,17.6662 20.5,17.5C 20.5,18.5 20.5,19.5 20.5,20.5C 20.1572,13.5947 23.4906,8.76134 30.5,6C 36.8854,4.31588 42.2187,5.81588 46.5,10.5 Z"/></g>
<g><path style="opacity:1" fill="#b0d25c" d="M 106.5,16.5 C 100.013,17.654 93.3464,17.8206 86.5,17C 83.6865,15.5064 81.6865,13.3397 80.5,10.5C 84.7813,5.81588 90.1146,4.31588 96.5,6C 101.41,8.07464 104.743,11.5746 106.5,16.5 Z"/></g>
<g><path style="opacity:1" fill="#9ec936" d="M 46.5,10.5 C 49.7414,12.9826 51.4081,16.3159 51.5,20.5C 41.1667,20.5 30.8333,20.5 20.5,20.5C 20.5,19.5 20.5,18.5 20.5,17.5C 26.8421,17.6662 33.1754,17.4995 39.5,17C 43.0147,15.9817 45.348,13.8151 46.5,10.5 Z"/></g>
<g><path style="opacity:1" fill="#9dc835" d="M 80.5,10.5 C 81.6865,13.3397 83.6865,15.5064 86.5,17C 93.3464,17.8206 100.013,17.654 106.5,16.5C 107.434,17.5676 107.768,18.901 107.5,20.5C 96.8333,20.5 86.1667,20.5 75.5,20.5C 75.5919,16.3159 77.2586,12.9826 80.5,10.5 Z"/></g>
<g><path style="opacity:1" fill="#76a237" d="M 74.5,32.5 C 67.0512,35.0876 59.7178,35.0876 52.5,32.5C 55.232,26.3778 55.8986,20.0445 54.5,13.5C 57.5772,13.3471 60.4105,14.0137 63,15.5C 66.0121,14.1308 69.1788,13.4642 72.5,13.5C 71.1014,20.0445 71.768,26.3778 74.5,32.5 Z"/></g>
<g><path style="opacity:1" fill="#ddd9d1" d="M 19.5,22.5 C 21.5,22.5 23.5,22.5 25.5,22.5C 25.7097,28.5451 28.8764,31.8784 35,32.5C 41.6664,32.3314 45.1664,28.998 45.5,22.5C 47.5,22.5 49.5,22.5 51.5,22.5C 48.0233,36.2384 39.69,40.4051 26.5,35C 22.2004,31.8979 19.8671,27.7313 19.5,22.5 Z"/></g>
<g><path style="opacity:1" fill="#29292a" d="M 26.5,22.5 C 32.5368,22.1707 38.5368,22.5041 44.5,23.5C 42.0479,29.3927 37.7145,31.5594 31.5,30C 28.8002,28.1433 27.1335,25.6433 26.5,22.5 Z"/></g>
<g><path style="opacity:1" fill="#ddd9d1" d="M 75.5,22.5 C 77.5,22.5 79.5,22.5 81.5,22.5C 81.7097,28.5451 84.8764,31.8784 91,32.5C 97.6664,32.3314 101.166,28.998 101.5,22.5C 103.5,22.5 105.5,22.5 107.5,22.5C 104.023,36.2384 95.69,40.4051 82.5,35C 78.2004,31.8979 75.8671,27.7313 75.5,22.5 Z"/></g>
<g><path style="opacity:1" fill="#29292a" d="M 82.5,22.5 C 88.5368,22.1707 94.5368,22.5041 100.5,23.5C 98.0479,29.3927 93.7145,31.5594 87.5,30C 84.8002,28.1433 83.1335,25.6433 82.5,22.5 Z"/></g>
<g><path style="opacity:1" fill="#679722" d="M 52.5,32.5 C 59.7178,35.0876 67.0512,35.0876 74.5,32.5C 84.0393,43.5545 94.3726,44.3878 105.5,35C 106.5,34.3333 107.5,34.3333 108.5,35C 114.734,40.9735 118.734,48.1401 120.5,56.5C 119.944,60.23 118.278,63.3966 115.5,66C 110.367,68.6555 105.034,70.8222 99.5,72.5C 98.7025,72.0431 98.3691,71.3764 98.5,70.5C 98.5,68.1667 98.5,65.8333 98.5,63.5C 97.5,63.5 96.5,63.5 95.5,63.5C 95.7845,65.4147 95.4511,67.0813 94.5,68.5C 93.9759,65.8122 92.3092,64.3122 89.5,64C 85.8326,63.063 82.4993,63.563 79.5,65.5C 79.5858,64.5041 79.2524,63.6708 78.5,63C 69.2691,58.896 59.9357,58.5627 50.5,62C 48.5743,62.4224 47.5743,63.5891 47.5,65.5C 44.1585,63.5386 40.4919,63.0386 36.5,64C 34.249,64.7475 32.9156,66.2475 32.5,68.5C 31.5489,67.0813 31.2155,65.4147 31.5,63.5C 30.5,63.5 29.5,63.5 28.5,63.5C 28.5,65.8333 28.5,68.1667 28.5,70.5C 28.6309,71.3764 28.2975,72.0431 27.5,72.5C 21.9661,70.8222 16.6328,68.6555 11.5,66C 8.34749,63.1954 6.68082,59.6954 6.5,55.5C 8.55256,47.5664 12.5526,40.733 18.5,35C 21.0937,34.5507 23.0937,35.5507 24.5,38C 35.1918,43.2951 44.5252,41.4618 52.5,32.5 Z"/></g>
<g><path style="opacity:1" fill="#281b10" d="M 57.5,45.5 C 65.9908,45.1374 73.9908,46.804 81.5,50.5C 81.1667,51.5 80.5,52.1667 79.5,52.5C 68.8333,48.5 58.1667,48.5 47.5,52.5C 45.5121,51.7112 45.1787,50.5445 46.5,49C 50.2938,47.8864 53.9604,46.7198 57.5,45.5 Z"/></g>
<g><path style="opacity:1" fill="#57861b" d="M 6.5,55.5 C 6.68082,59.6954 8.34749,63.1954 11.5,66C 16.6328,68.6555 21.9661,70.8222 27.5,72.5C 28.2975,72.0431 28.6309,71.3764 28.5,70.5C 29.8066,75.3155 30.8066,80.3155 31.5,85.5C 11.9753,84.3401 3.64199,74.3401 6.5,55.5 Z"/></g>
<g><path style="opacity:1" fill="#58871b" d="M 120.5,56.5 C 124.117,69.0918 119.783,77.9252 107.5,83C 103.595,84.3591 99.5948,85.1924 95.5,85.5C 96.1934,80.3155 97.1934,75.3155 98.5,70.5C 98.3691,71.3764 98.7025,72.0431 99.5,72.5C 105.034,70.8222 110.367,68.6555 115.5,66C 118.278,63.3966 119.944,60.23 120.5,56.5 Z"/></g>
<g><path style="opacity:1" fill="#291e10" d="M 79.5,65.5 C 78.8501,65.8039 78.1835,66.1373 77.5,66.5C 68.1547,62.5016 58.8213,62.5016 49.5,66.5C 48.8165,66.1373 48.1499,65.8039 47.5,65.5C 47.5743,63.5891 48.5743,62.4224 50.5,62C 59.9357,58.5627 69.2691,58.896 78.5,63C 79.2524,63.6708 79.5858,64.5041 79.5,65.5 Z"/></g>
<g><path style="opacity:1" fill="#7cb42c" d="M 47.5,65.5 C 48.1499,65.8039 48.8165,66.1373 49.5,66.5C 58.8213,62.5016 68.1547,62.5016 77.5,66.5C 78.1835,66.1373 78.8501,65.8039 79.5,65.5C 82.4993,63.563 85.8326,63.063 89.5,64C 92.3092,64.3122 93.9759,65.8122 94.5,68.5C 94.0482,72.1629 93.5482,75.8296 93,79.5C 89.9524,75.9431 86.119,73.9431 81.5,73.5C 77.6285,74.3523 73.7952,75.3523 70,76.5C 65.326,75.2482 60.6593,75.2482 56,76.5C 48.2887,71.9445 41.122,72.6112 34.5,78.5C 33.4025,75.2473 32.7358,71.9139 32.5,68.5C 32.9156,66.2475 34.249,64.7475 36.5,64C 40.4919,63.0386 44.1585,63.5386 47.5,65.5 Z"/></g>
<g><path style="opacity:1" fill="#9cc834" d="M 41.5,78.5 C 42.9293,80.6905 44.9293,82.0238 47.5,82.5C 40.1789,83.3193 38.8455,86.486 43.5,92C 48.1786,92.4914 50.5119,90.3247 50.5,85.5C 51.2344,86.8775 51.9011,88.3775 52.5,90C 55.9065,91.2399 57.5731,90.0732 57.5,86.5C 57.3887,84.2857 56.722,82.2857 55.5,80.5C 61.1168,79.2072 66.7835,79.2072 72.5,80.5C 74.1772,79.8131 75.8439,79.1465 77.5,78.5C 78.9293,80.6905 80.9293,82.0238 83.5,82.5C 76.1789,83.3193 74.8455,86.486 79.5,92C 84.1786,92.4914 86.5119,90.3247 86.5,85.5C 87.2344,86.8775 87.9011,88.3775 88.5,90C 90.2475,90.3519 91.9142,90.8519 93.5,91.5C 95.4124,95.1936 95.9124,99.1936 95,103.5C 93.8333,106 92,107.833 89.5,109C 72.1667,109.667 54.8333,109.667 37.5,109C 31.8912,105.723 30.0578,100.89 32,94.5C 34.4087,90.4734 36.0754,86.1401 37,81.5C 38.129,79.8588 39.629,78.8588 41.5,78.5 Z"/></g>
<g><path style="opacity:1" fill="#accf58" d="M 41.5,78.5 C 43.9664,77.3659 46.633,77.1993 49.5,78C 51.2166,79.5588 53.2166,80.3921 55.5,80.5C 56.722,82.2857 57.3887,84.2857 57.5,86.5C 57.5731,90.0732 55.9065,91.2399 52.5,90C 51.9011,88.3775 51.2344,86.8775 50.5,85.5C 49.1667,84.8333 48.1667,83.8333 47.5,82.5C 44.9293,82.0238 42.9293,80.6905 41.5,78.5 Z"/></g>
<g><path style="opacity:1" fill="#a9cb56" d="M 77.5,78.5 C 83.3729,76.1476 87.8729,77.8143 91,83.5C 91.2752,86.4123 92.1086,89.079 93.5,91.5C 91.9142,90.8519 90.2475,90.3519 88.5,90C 87.9011,88.3775 87.2344,86.8775 86.5,85.5C 85.1667,84.8333 84.1667,83.8333 83.5,82.5C 80.9293,82.0238 78.9293,80.6905 77.5,78.5 Z"/></g>
<g><path style="opacity:1" fill="#2e2512" d="M 47.5,82.5 C 48.1667,83.8333 49.1667,84.8333 50.5,85.5C 50.5119,90.3247 48.1786,92.4914 43.5,92C 38.8455,86.486 40.1789,83.3193 47.5,82.5 Z"/></g>
<g><path style="opacity:1" fill="#2e2512" d="M 83.5,82.5 C 84.1667,83.8333 85.1667,84.8333 86.5,85.5C 86.5119,90.3247 84.1786,92.4914 79.5,92C 74.8455,86.486 76.1789,83.3193 83.5,82.5 Z"/></g>
<g><path style="opacity:1" fill="#55821a" d="M 43.5,84.5 C 48.1585,84.0146 49.4919,85.848 47.5,90C 42.7282,90.8104 41.3948,88.9771 43.5,84.5 Z"/></g>
<g><path style="opacity:1" fill="#55821a" d="M 79.5,84.5 C 84.1585,84.0146 85.4919,85.848 83.5,90C 78.7282,90.8104 77.3948,88.9771 79.5,84.5 Z"/></g>
<g><path style="opacity:1" fill="#dbd7ce" d="M 48.5,113.5 C 50.1667,113.5 51.8333,113.5 53.5,113.5C 53.4011,116.605 52.4011,119.272 50.5,121.5C 49.914,121.291 49.414,120.957 49,120.5C 48.5034,118.19 48.3367,115.857 48.5,113.5 Z"/></g>
<g><path style="opacity:1" fill="#8bbc2e" d="M 56.5,113.5 C 61.1667,113.5 65.8333,113.5 70.5,113.5C 70.5,115.5 70.5,117.5 70.5,119.5C 65.8333,119.5 61.1667,119.5 56.5,119.5C 56.5,117.5 56.5,115.5 56.5,113.5 Z"/></g>
<g><path style="opacity:1" fill="#dbd7ce" d="M 74.5,113.5 C 76.1667,113.5 77.8333,113.5 79.5,113.5C 79.4011,116.605 78.4011,119.272 76.5,121.5C 75.914,121.291 75.414,120.957 75,120.5C 74.5034,118.19 74.3367,115.857 74.5,113.5 Z"/></g>
<g><path style="opacity:1" fill="#699023" d="M 82.5,113.5 C 88.6412,113.101 88.9746,114.101 83.5,116.5C 82.6143,115.675 82.281,114.675 82.5,113.5 Z"/></g>
<g><path style="opacity:1" fill="#6a9124" d="M 39.5,114.5 C 40.9187,113.549 42.5853,113.216 44.5,113.5C 44.719,114.675 44.3857,115.675 43.5,116.5C 42.1401,115.82 40.8068,115.153 39.5,114.5 Z"/></g>
</svg>
